<?xml version="1.0" encoding="utf-8"?>
<!-- Generator: Adobe Illustrator 16.0.0, SVG Export Plug-In . SVG Version: 6.00 Build 0)  -->
<!DOCTYPE svg PUBLIC "-//W3C//DTD SVG 1.1//EN" "http://www.w3.org/Graphics/SVG/1.1/DTD/svg11.dtd">
<svg version="1.1" id="Layer_1" xmlns="http://www.w3.org/2000/svg" xmlns:xlink="http://www.w3.org/1999/xlink" x="0px" y="0px"
	 width="264px" height="44px" viewBox="0 0 264 44" enable-background="new 0 0 264 44" xml:space="preserve">
<g>
	<path fill="#FFFFFF" d="M22,44h22V22C44,34.15,34.15,44,22,44z"/>
	<path fill="#FFFFFF" d="M0,22v22h22C9.85,44,0,34.15,0,22z"/>
	<path fill="#FFFFFF" d="M22,0H0v22C0,9.85,9.85,0,22,0z"/>
	<path fill="#FFFFFF" d="M22,0c12.15,0,22,9.85,22,22V0H22z"/>
</g>
<path fill="#FFFFFF" d="M44,0v44h44V0H44z M86.783,40H45.217c-1.084,0-1.527-0.768-0.985-1.707L65.015,2.296
	c0.542-0.938,1.429-0.938,1.971,0l20.783,35.997C88.311,39.232,87.867,40,86.783,40z"/>
<path fill="#FFFFFF" d="M88,0v44h44V0H88z M131.479,23.264l-20.215,20.215c-0.695,0.695-1.832,0.695-2.527,0L88.521,23.264
	c-0.695-0.695-0.695-1.832,0-2.527l20.215-20.215c0.695-0.695,1.833-0.695,2.528,0l20.215,20.215
	C132.174,21.432,132.174,22.568,131.479,23.264z"/>
<path fill="#FFFFFF" d="M132,0v44h44V0H132z M173,30.976c0,1.096-0.778,2.444-1.728,2.991l-15.546,8.975
	c-0.949,0.548-2.504,0.548-3.455,0l-15.545-8.975c-0.95-0.547-1.727-1.896-1.727-2.991V13.024c0-1.097,0.776-2.444,1.727-2.991
	l15.545-8.975c0.949-0.548,2.505-0.548,3.455,0l15.546,8.975c0.951,0.547,1.728,1.895,1.728,2.991V30.976z"/>
<g>
	<path fill="#FFFFFF" d="M190,36v-0.145l-0.125,0.072c-1.26,0.728-2.636,1.072-3.992,1.072c-2.766,0-5.453-1.436-6.938-4.001
		c-2.209-3.826-0.896-8.72,2.93-10.928L182,22l-0.124-0.071c-3.826-2.209-5.138-7.102-2.928-10.928
		c2.208-3.827,7.101-5.139,10.928-2.928L190,8.144V8c0-4.418,3.582-8,8-8h-22v44h22C193.582,44,190,40.418,190,36z"/>
	<path fill="#FFFFFF" d="M198,0c4.418,0,8,3.582,8,8v0.144l0.125-0.072c3.828-2.211,8.721-0.897,10.93,2.928
		c2.209,3.827,0.896,8.719-2.93,10.928L214,22l0.124,0.071c3.826,2.209,5.138,7.102,2.928,10.928
		C215.57,35.564,212.881,37,210.116,37c-1.357,0-2.732-0.346-3.992-1.073L206,35.855V36c0,4.418-3.582,8-8,8h22V0H198z"/>
</g>
<g>
	<path fill="#FFFFFF" d="M223.768,18.232C223.768,8.162,231.93,0,242,0h-22v44h22l-12.691-12.691
		C225.896,27.995,223.768,23.365,223.768,18.232z"/>
	<path fill="#FFFFFF" d="M242,0c10.07,0,18.232,8.162,18.232,18.232c0,5.13-2.126,9.758-5.535,13.07L242,44h22V0H242z"/>
</g>
</svg>
