<?xml version="1.0" encoding="utf-8"?>
<!-- Generator: Adobe Illustrator 16.0.0, SVG Export Plug-In . SVG Version: 6.00 Build 0)  -->
<!DOCTYPE svg PUBLIC "-//W3C//DTD SVG 1.1//EN" "http://www.w3.org/Graphics/SVG/1.1/DTD/svg11.dtd">
<svg version="1.1" id="Layer_1" xmlns="http://www.w3.org/2000/svg" xmlns:xlink="http://www.w3.org/1999/xlink" x="0px" y="0px"
	 width="264px" height="44px" viewBox="-49.5 262.5 264 44" enable-background="new -49.5 262.5 264 44" xml:space="preserve">
<g>
	<circle fill="#9EAB60" cx="-27.5" cy="284.5" r="22"/>
</g>
<g>
	<g>
		<circle fill="#7759B5" cx="148.5" cy="284.5" r="22"/>
	</g>
</g>
<g>
	<g>
		<circle fill="#9A9893" cx="192.5" cy="284.5" r="22"/>
	</g>
</g>
<path fill="#C30042" d="M37.283,302.5H-4.283c-1.084,0-1.527-0.768-0.985-1.707l20.783-35.997c0.542-0.938,1.429-0.938,1.971,0
	l20.783,35.997C38.811,301.732,38.367,302.5,37.283,302.5z"/>
<g>
	<path fill="#C30042" d="M60.5,267.09l19.29,33.41H41.21L60.5,267.09 M60.5,264.092c-0.357,0-0.714,0.235-0.985,0.704
		l-20.783,35.997c-0.542,0.939-0.099,1.707,0.985,1.707h41.566c1.084,0,1.528-0.768,0.986-1.707l-20.783-35.997
		C61.214,264.327,60.857,264.092,60.5,264.092L60.5,264.092z"/>
</g>
<path fill="#9A9893" d="M125.979,285.764l-20.215,20.215c-0.695,0.695-1.832,0.695-2.527,0l-20.216-20.215
	c-0.695-0.695-0.695-1.832,0-2.527l20.215-20.215c0.695-0.694,1.833-0.694,2.528,0l20.215,20.215
	C126.674,283.932,126.674,285.068,125.979,285.764z"/>
<rect x="146.5" y="270.5" fill="#FFFFFF" width="4" height="28"/>
<rect x="134.5" y="282.5" fill="#FFFFFF" width="28" height="4"/>
<rect x="178.5" y="282.501" fill="#FFFFFF" width="28" height="4"/>
<rect x="58.5" y="288.5" fill="#C30042" width="4" height="8"/>
<circle fill="#C30042" cx="60.5" cy="282.5" r="2"/>
</svg>
