<?xml version="1.0" encoding="utf-8"?>
<!-- Generator: Adobe Illustrator 16.0.0, SVG Export Plug-In . SVG Version: 6.00 Build 0)  -->
<!DOCTYPE svg PUBLIC "-//W3C//DTD SVG 1.1 Tiny//EN" "http://www.w3.org/Graphics/SVG/1.1/DTD/svg11-tiny.dtd">
<svg version="1.1" baseProfile="tiny" id="Layer_1" xmlns="http://www.w3.org/2000/svg" xmlns:xlink="http://www.w3.org/1999/xlink"
	 x="0px" y="0px" width="787.417px" height="256px" viewBox="0 0 787.417 256" xml:space="preserve">
<g>
	<path fill="#483963" d="M464.394,50.793c0.716-1.27,1.127-2.734,1.127-4.295c0-4.837-3.921-8.758-8.758-8.758h-0.674h-8.084
		c-2.232,0-4.042,1.81-4.042,4.042V63.34c0,2.232,1.81,4.042,4.042,4.042h10.105c5.581,0,10.105-4.524,10.105-10.105
		C468.216,54.487,466.673,52.057,464.394,50.793z M456.763,45.824c1.114,0,2.021,0.907,2.021,2.021c0,1.115-0.907,2.021-2.021,2.021
		h-0.674h-4.042v-4.042H456.763z M458.11,59.298h-6.063v-4.042h4.042h0.674h1.347c1.116,0,2.021,0.905,2.021,2.021
		S459.227,59.298,458.11,59.298z"/>
	<path fill="#483963" d="M323.79,40.35c-0.015-0.039-0.034-0.075-0.049-0.113c-0.028-0.068-0.056-0.136-0.087-0.202
		c-0.028-0.06-0.059-0.117-0.09-0.175c-0.03-0.057-0.061-0.113-0.095-0.169c-0.036-0.061-0.074-0.119-0.113-0.177
		c-0.034-0.05-0.068-0.101-0.104-0.149c-0.042-0.057-0.085-0.111-0.13-0.166c-0.04-0.048-0.08-0.095-0.122-0.142
		c-0.044-0.049-0.09-0.097-0.137-0.144c-0.047-0.047-0.095-0.094-0.145-0.139c-0.046-0.042-0.093-0.081-0.14-0.12
		c-0.055-0.045-0.11-0.089-0.167-0.131c-0.048-0.036-0.097-0.069-0.146-0.103c-0.059-0.04-0.119-0.079-0.18-0.116
		c-0.054-0.032-0.109-0.062-0.164-0.092c-0.06-0.032-0.119-0.063-0.181-0.093c-0.063-0.03-0.128-0.057-0.193-0.084
		c-0.041-0.017-0.079-0.036-0.12-0.052c-0.018-0.007-0.036-0.011-0.054-0.017c-0.069-0.025-0.14-0.046-0.21-0.067
		c-0.058-0.017-0.116-0.036-0.174-0.05c-0.068-0.017-0.138-0.03-0.207-0.043c-0.062-0.012-0.123-0.026-0.184-0.035
		c-0.067-0.01-0.134-0.015-0.202-0.021c-0.064-0.006-0.128-0.014-0.192-0.017c-0.066-0.003-0.133-0.002-0.199-0.002
		c-0.065,0-0.13-0.001-0.194,0.002c-0.065,0.003-0.131,0.011-0.197,0.018s-0.132,0.012-0.197,0.021
		c-0.062,0.009-0.124,0.023-0.186,0.035c-0.069,0.014-0.138,0.026-0.206,0.043c-0.058,0.015-0.114,0.033-0.171,0.05
		c-0.072,0.021-0.144,0.043-0.214,0.068c-0.017,0.006-0.035,0.01-0.052,0.017c-0.04,0.015-0.077,0.034-0.117,0.05
		c-0.067,0.028-0.133,0.055-0.198,0.086c-0.06,0.029-0.118,0.06-0.176,0.091c-0.057,0.03-0.113,0.061-0.168,0.094
		c-0.061,0.036-0.119,0.074-0.177,0.113c-0.051,0.034-0.101,0.068-0.15,0.105c-0.056,0.042-0.11,0.085-0.164,0.129
		c-0.049,0.04-0.096,0.081-0.143,0.123c-0.049,0.044-0.096,0.09-0.143,0.137c-0.047,0.047-0.094,0.096-0.139,0.146
		c-0.042,0.046-0.082,0.093-0.121,0.14c-0.045,0.055-0.088,0.109-0.131,0.167c-0.036,0.048-0.07,0.098-0.104,0.148
		c-0.039,0.058-0.077,0.117-0.114,0.178c-0.033,0.055-0.064,0.112-0.094,0.168c-0.031,0.058-0.062,0.116-0.09,0.175
		c-0.032,0.066-0.06,0.134-0.088,0.202c-0.016,0.038-0.035,0.074-0.049,0.113l-4.3,11.465l-4.299-11.465
		c-0.015-0.039-0.034-0.075-0.049-0.113c-0.028-0.068-0.056-0.136-0.087-0.202c-0.028-0.06-0.059-0.117-0.09-0.175
		c-0.03-0.057-0.061-0.113-0.094-0.168c-0.037-0.061-0.075-0.12-0.114-0.178c-0.034-0.05-0.068-0.1-0.104-0.148
		c-0.042-0.057-0.086-0.112-0.131-0.167c-0.039-0.047-0.079-0.094-0.12-0.14c-0.045-0.05-0.092-0.099-0.14-0.146
		c-0.046-0.046-0.093-0.092-0.142-0.136c-0.047-0.042-0.095-0.083-0.144-0.124c-0.053-0.044-0.107-0.087-0.163-0.128
		c-0.05-0.037-0.101-0.072-0.152-0.106c-0.057-0.038-0.115-0.076-0.175-0.112c-0.056-0.034-0.113-0.065-0.171-0.096
		c-0.057-0.031-0.115-0.061-0.174-0.089c-0.066-0.032-0.134-0.06-0.202-0.088c-0.039-0.016-0.075-0.035-0.114-0.049
		c-0.017-0.006-0.034-0.01-0.051-0.016c-0.073-0.026-0.147-0.048-0.221-0.071c-0.055-0.016-0.109-0.034-0.163-0.047
		c-0.072-0.018-0.145-0.032-0.218-0.046c-0.058-0.011-0.116-0.024-0.173-0.033c-0.07-0.01-0.14-0.016-0.211-0.022
		c-0.061-0.006-0.122-0.014-0.183-0.017c-0.068-0.003-0.137-0.002-0.206-0.002c-0.063,0-0.126-0.001-0.189,0.001
		c-0.066,0.003-0.132,0.012-0.198,0.018c-0.065,0.006-0.131,0.012-0.196,0.021c-0.062,0.009-0.123,0.023-0.185,0.035
		c-0.069,0.014-0.139,0.026-0.207,0.043c-0.057,0.015-0.113,0.033-0.17,0.05c-0.072,0.021-0.144,0.043-0.214,0.068
		c-0.017,0.006-0.035,0.01-0.052,0.017c-0.041,0.015-0.078,0.035-0.118,0.051c-0.066,0.027-0.132,0.055-0.197,0.085
		c-0.061,0.029-0.119,0.06-0.178,0.091c-0.056,0.03-0.112,0.061-0.167,0.093c-0.061,0.037-0.12,0.075-0.178,0.114
		c-0.05,0.034-0.1,0.068-0.148,0.104c-0.057,0.042-0.111,0.085-0.166,0.13c-0.048,0.039-0.095,0.08-0.141,0.121
		c-0.05,0.045-0.098,0.091-0.145,0.138c-0.047,0.047-0.093,0.094-0.138,0.144c-0.042,0.047-0.082,0.094-0.122,0.142
		c-0.044,0.054-0.088,0.108-0.13,0.165c-0.036,0.049-0.071,0.1-0.105,0.15c-0.039,0.058-0.077,0.116-0.113,0.176
		c-0.033,0.056-0.064,0.112-0.095,0.169c-0.031,0.058-0.062,0.115-0.09,0.175c-0.032,0.066-0.06,0.134-0.087,0.201
		c-0.016,0.039-0.035,0.075-0.049,0.114l-8.084,21.558c-0.784,2.09,0.275,4.42,2.365,5.204c0.468,0.175,0.947,0.258,1.419,0.258
		c1.637,0,3.177-1.001,3.785-2.624l4.3-11.465l4.299,11.465c0.023,0.062,0.05,0.121,0.076,0.182c0.013,0.029,0.024,0.06,0.038,0.089
		c0.051,0.111,0.106,0.22,0.167,0.325c0.004,0.007,0.008,0.013,0.012,0.02c0.057,0.098,0.118,0.192,0.183,0.285
		c0.017,0.024,0.035,0.047,0.052,0.071c0.055,0.075,0.111,0.147,0.171,0.217c0.021,0.026,0.043,0.052,0.066,0.077
		c0.064,0.072,0.13,0.141,0.198,0.207c0.019,0.018,0.036,0.038,0.055,0.055c0.086,0.081,0.175,0.157,0.267,0.229
		c0.028,0.022,0.058,0.042,0.086,0.064c0.068,0.05,0.137,0.099,0.208,0.145c0.036,0.024,0.073,0.047,0.11,0.07
		c0.077,0.046,0.156,0.09,0.236,0.132c0.027,0.014,0.054,0.029,0.082,0.043c0.11,0.054,0.222,0.103,0.336,0.146
		c0.008,0.003,0.015,0.007,0.023,0.01c0.023,0.008,0.046,0.014,0.069,0.022c0.077,0.027,0.154,0.052,0.232,0.075
		c0.039,0.011,0.077,0.021,0.115,0.031c0.072,0.018,0.144,0.035,0.217,0.049c0.04,0.008,0.081,0.017,0.121,0.023
		c0.075,0.012,0.15,0.021,0.226,0.03c0.036,0.004,0.072,0.01,0.108,0.013c0.108,0.009,0.216,0.014,0.325,0.014
		c0.002,0,0.004,0,0.006,0h0h0c0.002,0,0.004,0,0.006,0c0.109,0,0.217-0.005,0.325-0.014c0.036-0.003,0.073-0.009,0.109-0.013
		c0.075-0.008,0.15-0.018,0.224-0.03c0.041-0.007,0.082-0.016,0.123-0.023c0.072-0.015,0.143-0.031,0.214-0.049
		c0.04-0.01,0.079-0.021,0.118-0.032c0.077-0.022,0.153-0.047,0.229-0.074c0.023-0.008,0.047-0.014,0.071-0.023
		c0.008-0.003,0.015-0.007,0.023-0.01c0.114-0.044,0.226-0.092,0.335-0.146c0.029-0.014,0.056-0.03,0.084-0.045
		c0.079-0.041,0.156-0.084,0.232-0.13c0.038-0.023,0.076-0.047,0.113-0.071c0.07-0.045,0.137-0.093,0.204-0.143
		c0.03-0.022,0.061-0.043,0.09-0.066c0.091-0.072,0.18-0.147,0.265-0.228c0.021-0.019,0.039-0.04,0.059-0.059
		c0.067-0.065,0.132-0.133,0.194-0.203c0.023-0.026,0.046-0.053,0.068-0.08c0.058-0.069,0.114-0.141,0.168-0.214
		c0.018-0.024,0.036-0.048,0.054-0.073c0.063-0.091,0.124-0.185,0.18-0.281c0.004-0.008,0.01-0.015,0.014-0.022
		c0.06-0.104,0.115-0.213,0.166-0.324c0.014-0.029,0.025-0.06,0.038-0.089c0.026-0.06,0.053-0.119,0.076-0.181l4.3-11.465
		l4.299,11.465c0.608,1.623,2.148,2.624,3.785,2.624c0.472,0,0.951-0.083,1.419-0.258c2.09-0.784,3.149-3.114,2.365-5.204
		L323.79,40.35z"/>
	<path fill="#483963" d="M353.475,38.578c-1.763-1.37-4.302-1.051-5.672,0.712l-6.24,8.031l-6.24-8.031
		c-1.37-1.763-3.909-2.082-5.672-0.712c-1.763,1.37-2.082,3.909-0.712,5.672l8.582,11.044v8.033c0,2.232,1.81,4.042,4.042,4.042
		s4.042-1.81,4.042-4.042v-8.033l8.582-11.045C355.556,42.487,355.237,39.947,353.475,38.578z"/>
	<path fill="#483963" d="M380.8,38.911c-1.579-1.578-4.138-1.578-5.716,0l-9.268,9.276V41.77c0-2.232-1.81-4.042-4.042-4.042
		s-4.042,1.81-4.042,4.042v21.558c0,2.232,1.81,4.042,4.042,4.042s4.042-1.81,4.042-4.042v-3.703l3.243-3.246l5.417,9.028
		c0.758,1.263,2.097,1.963,3.47,1.963c0.708,0,1.425-0.186,2.076-0.577c1.914-1.148,2.535-3.631,1.386-5.546l-6.459-10.764
		l5.851-5.856C382.379,43.049,382.379,40.49,380.8,38.911z"/>
	<path fill="#483963" d="M415.96,42.068c-5.778,5.779-5.778,15.181,0,20.96c2.89,2.89,6.685,4.334,10.48,4.334
		c3.795,0,7.59-1.444,10.48-4.334c5.778-5.779,5.778-15.181,0-20.96C431.142,36.29,421.739,36.29,415.96,42.068z M421.677,57.312
		c-2.627-2.627-2.627-6.9,0-9.527c2.626-2.627,6.9-2.627,9.527,0c2.626,2.627,2.626,6.9,0,9.527
		C428.577,59.939,424.303,59.939,421.677,57.312z"/>
	<path fill="#483963" d="M491.121,59.298h-12.126V56.59h6.737c2.232,0,4.042-1.81,4.042-4.042s-1.81-4.042-4.042-4.042h-6.737
		v-2.682h12.126c2.232,0,4.042-1.81,4.042-4.042s-1.81-4.042-4.042-4.042h-15.918c-0.083-0.005-0.166-0.013-0.25-0.013
		c-2.232,0-4.042,1.81-4.042,4.042v21.558c0,0.002,0,0.004,0,0.006c0,0.002,0,0.004,0,0.006c0,2.232,1.81,4.042,4.042,4.042h16.168
		c2.232,0,4.042-1.81,4.042-4.042S493.354,59.298,491.121,59.298z"/>
	<path fill="#483963" d="M408.932,48.506c0-5.943-4.835-10.779-10.779-10.779h-9.431c-2.232,0-4.042,1.81-4.042,4.042v21.558
		c0,2.232,1.81,4.042,4.042,4.042c2.232,0,4.042-1.81,4.042-4.042v-4.042h4.987l3.673,6.122c0.758,1.264,2.097,1.963,3.47,1.963
		c0.708,0,1.424-0.186,2.075-0.577c1.915-1.148,2.535-3.631,1.387-5.545l-2.896-4.827C407.593,54.451,408.932,51.632,408.932,48.506
		z M392.763,45.812h5.389c1.486,0,2.695,1.209,2.695,2.695s-1.209,2.695-2.695,2.695h-5.389V45.812z"/>
</g>
<g>
	<path fill="#7759B5" d="M323.34,116.75h-19.301v20.716c0,3.436-2.729,6.164-6.165,6.164c-3.436,0-6.164-2.729-6.164-6.164V81.684
		c0-3.436,2.729-6.164,6.164-6.164h25.465c16.775,0,23.95,9.297,23.95,20.716S340.115,116.75,323.34,116.75z M325.058,86.838
		h-21.019v18.493h21.019c6.771,0,9.802-4.547,9.802-9.095C334.86,91.79,331.828,86.838,325.058,86.838z"/>
	<path fill="#7759B5" d="M407.516,137.465c0,3.132-2.425,6.164-6.165,6.164c-2.728,0-4.446-1.212-5.457-3.334l-11.823-24.354H363.76
		v21.524c0,3.436-2.729,6.164-6.164,6.164c-3.436,0-6.165-2.729-6.165-6.164V81.684c0-3.436,2.729-6.164,6.165-6.164h25.97
		c16.775,0,23.95,8.286,23.95,20.21c0,7.882-3.436,14.653-11.116,17.987l10.408,21.12
		C407.213,135.646,407.516,136.556,407.516,137.465z M385.284,86.838H363.76v18.493h21.524c6.771,0,9.802-4.952,9.802-9.499
		C395.086,91.385,392.055,86.838,385.284,86.838z"/>
	<path fill="#7759B5" d="M456.122,142.821h-37.895c-3.436,0-6.265-2.729-6.265-6.165V81.684c0-3.436,2.829-6.164,6.265-6.164h36.379
		c3.234,0,5.861,2.425,5.861,5.659c0,3.234-2.627,5.76-5.861,5.76H424.29v16.067h16.674c3.133,0,5.76,2.526,5.76,5.76
		c0,3.234-2.627,5.659-5.76,5.659H424.29v16.977h31.832c3.234,0,5.861,2.526,5.861,5.76S459.355,142.821,456.122,142.821z"/>
	<path fill="#7759B5" d="M490.429,142.821h-18.493c-3.436,0-6.265-2.83-6.265-6.266V81.684c0-3.436,2.829-6.164,6.265-6.164h18.493
		c20.514,0,33.549,14.854,33.549,33.65S510.942,142.821,490.429,142.821z M489.822,86.939h-11.823v44.463h11.823
		c13.945,0,21.827-9.196,21.827-22.232C511.649,96.135,503.768,86.939,489.822,86.939z"/>
	<path fill="#7759B5" d="M534.486,143.629c-3.436,0-6.265-2.83-6.265-6.265V80.977c0-3.436,2.83-6.266,6.265-6.266
		c3.436,0,6.063,2.83,6.063,6.266v56.387C540.55,140.8,537.922,143.629,534.486,143.629z"/>
	<path fill="#7759B5" d="M594.006,127.057c1.313-0.909,2.627-1.415,4.042-1.415c3.436,0,5.558,2.627,5.558,5.659
		c0,1.617-0.707,2.93-1.92,4.143c-5.76,5.962-14.652,8.589-22.535,8.589c-19.806,0-34.358-13.743-34.358-34.863
		s14.552-34.863,34.358-34.863c7.882,0,16.775,2.627,22.535,8.59c1.213,1.212,1.92,2.526,1.92,4.143
		c0,3.032-2.122,5.659-5.558,5.659c-1.415,0-2.729-0.505-4.042-1.415c-3.84-2.931-7.983-5.558-14.855-5.558
		c-13.238,0-21.928,10.004-21.928,23.444s8.69,23.444,21.928,23.444C586.022,132.615,590.166,129.987,594.006,127.057z"/>
	<path fill="#7759B5" d="M658.173,87.141h-17.28v50.223c0,3.436-2.83,6.265-6.266,6.265c-3.436,0-6.063-2.83-6.063-6.265V87.141
		h-17.381c-3.233,0-5.861-2.627-5.861-5.76c0-3.233,2.526-5.861,5.861-5.861h46.99c3.234,0,5.861,2.627,5.861,5.861
		C664.034,84.514,661.508,87.141,658.173,87.141z"/>
	<path fill="#7759B5" d="M692.732,144.034c-19.806,0-34.56-15.36-34.56-34.863c0-19.503,14.754-34.863,34.56-34.863
		s34.56,15.36,34.56,34.863C727.292,128.674,712.538,144.034,692.732,144.034z M692.732,85.423c-13.743,0-22.13,10.914-22.13,23.747
		c0,12.834,8.387,23.748,22.13,23.748s22.13-10.914,22.13-23.748C714.862,96.337,706.475,85.423,692.732,85.423z"/>
	<path fill="#7759B5" d="M787.417,137.465c0,3.132-2.425,6.164-6.164,6.164c-2.729,0-4.446-1.212-5.457-3.334l-11.823-24.354
		h-20.312v21.524c0,3.436-2.729,6.164-6.164,6.164c-3.436,0-6.164-2.729-6.164-6.164V81.684c0-3.436,2.728-6.164,6.164-6.164h25.971
		c16.774,0,23.949,8.286,23.949,20.21c0,7.882-3.436,14.653-11.116,17.987l10.408,21.12
		C787.114,135.646,787.417,136.556,787.417,137.465z M765.186,86.838h-21.524v18.493h21.524c6.771,0,9.802-4.952,9.802-9.499
		C774.987,91.385,771.956,86.838,765.186,86.838z"/>
	<path fill="#9BA38B" d="M315.963,219.486c-8.185,0-17.482-2.526-23.343-7.074c-2.021-1.617-3.436-3.638-3.436-5.861
		c0-3.133,2.021-5.255,5.154-5.255c1.111,0,2.122,0.303,3.133,0.91c5.457,3.436,9.195,6.467,18.694,6.467
		c9.701,0,13.541-3.941,13.541-8.489c0-4.951-3.941-7.478-16.067-10.711c-18.291-4.851-23.747-10.711-23.747-20.817
		c0-12.328,10.61-18.897,26.678-18.897c3.638,0,8.589,0.606,12.935,1.819c4.648,1.313,10.51,4.244,10.51,8.286
		c0,2.729-1.617,5.558-5.053,5.558c-0.809,0-1.617-0.101-2.425-0.505c-4.648-2.122-9.499-4.244-15.865-4.244
		c-8.994,0-14.451,2.425-14.451,7.68c0,4.952,4.042,6.669,16.168,10.207c13.844,4.042,23.646,7.983,23.646,20.918
		C342.035,211.2,333.142,219.486,315.963,219.486z"/>
	<path fill="#9BA38B" d="M349.512,218.981c-3.84,0-6.872-3.132-6.872-6.973c0-3.84,3.032-6.872,6.872-6.872s6.973,3.032,6.973,6.872
		C356.484,215.849,353.352,218.981,349.512,218.981z"/>
	<path fill="#9BA38B" d="M406.909,203.419h-29.912l-5.76,12.329c-1.111,2.021-2.526,3.334-5.153,3.334
		c-3.638,0-5.861-2.83-5.861-5.76c0-0.809,0.202-1.617,0.606-2.425l25.87-57.499c0.909-2.021,2.627-3.234,5.254-3.234
		s4.345,1.112,5.255,3.234l25.87,57.499c0.404,0.808,0.606,1.617,0.606,2.425c0,2.93-2.224,5.76-5.861,5.76
		c-2.627,0-4.042-1.212-5.154-3.334L406.909,203.419z M391.953,166.939l-10.509,25.667h21.019L391.953,166.939z"/>
	<path fill="#9BA38B" d="M467.438,156.43c0-3.436,2.729-6.266,6.164-6.266c3.436,0,6.165,2.83,6.165,6.266v34.661
		c0,17.381-10.813,28.396-28.8,28.396s-28.8-11.015-28.8-28.396V156.43c0-3.436,2.729-6.266,6.164-6.266
		c3.436,0,6.164,2.83,6.164,6.266v35.975c0,9.398,5.659,15.966,16.472,15.966c10.813,0,16.472-6.568,16.472-15.966V156.43z"/>
	<path fill="#9BA38B" d="M540.295,212.918c0,3.132-2.425,6.164-6.164,6.164c-2.729,0-4.446-1.212-5.457-3.334l-11.823-24.354
		h-20.312v21.524c0,3.436-2.729,6.164-6.164,6.164c-3.436,0-6.164-2.729-6.164-6.164v-55.781c0-3.436,2.728-6.164,6.164-6.164
		h25.971c16.774,0,23.949,8.286,23.949,20.21c0,7.882-3.436,14.653-11.116,17.987l10.408,21.12
		C539.992,211.099,540.295,212.008,540.295,212.918z M518.063,162.291h-21.524v18.493h21.524c6.771,0,9.802-4.952,9.802-9.499
		C527.865,166.838,524.834,162.291,518.063,162.291z"/>
	<path fill="#9BA38B" d="M588.901,218.273h-37.895c-3.436,0-6.265-2.728-6.265-6.164v-54.973c0-3.436,2.83-6.164,6.265-6.164h36.379
		c3.234,0,5.861,2.425,5.861,5.659c0,3.234-2.627,5.76-5.861,5.76h-30.315v16.067h16.673c3.133,0,5.76,2.526,5.76,5.76
		c0,3.234-2.627,5.659-5.76,5.659h-16.673v16.977h31.832c3.233,0,5.861,2.526,5.861,5.76S592.134,218.273,588.901,218.273z"/>
	<path fill="#9BA38B" d="M642.256,156.43c0-3.436,2.729-6.266,6.164-6.266c3.436,0,6.165,2.83,6.165,6.266v34.661
		c0,17.381-10.813,28.396-28.8,28.396s-28.8-11.015-28.8-28.396V156.43c0-3.436,2.729-6.266,6.164-6.266
		c3.436,0,6.165,2.83,6.165,6.266v35.975c0,9.398,5.659,15.966,16.471,15.966c10.813,0,16.472-6.568,16.472-15.966V156.43z"/>
	<path fill="#9BA38B" d="M685.101,219.486c-8.186,0-17.482-2.526-23.343-7.074c-2.021-1.617-3.436-3.638-3.436-5.861
		c0-3.133,2.021-5.255,5.153-5.255c1.112,0,2.122,0.303,3.133,0.91c5.457,3.436,9.196,6.467,18.695,6.467
		c9.701,0,13.541-3.941,13.541-8.489c0-4.951-3.941-7.478-16.067-10.711c-18.291-4.851-23.748-10.711-23.748-20.817
		c0-12.328,10.61-18.897,26.678-18.897c3.638,0,8.59,0.606,12.935,1.819c4.648,1.313,10.509,4.244,10.509,8.286
		c0,2.729-1.617,5.558-5.053,5.558c-0.808,0-1.617-0.101-2.425-0.505c-4.648-2.122-9.499-4.244-15.865-4.244
		c-8.994,0-14.451,2.425-14.451,7.68c0,4.952,4.042,6.669,16.168,10.207c13.844,4.042,23.646,7.983,23.646,20.918
		C711.172,211.2,702.28,219.486,685.101,219.486z"/>
</g>
<circle fill="#9BA38B" cx="117.9" cy="52.547" r="52.547"/>
<circle fill="#9BA38B" cx="183.243" cy="165.726" r="52.548"/>
<circle fill="#9BA38B" cx="52.556" cy="165.726" r="52.548"/>
<circle fill="#7759B5" cx="117.9" cy="203.453" r="52.547"/>
<path fill="#483963" d="M132.285,152.915c-5.593,22.203,3.874,46.303,24.685,58.319c3.831,2.212,7.826,3.879,11.895,5.04
	c1.029-4.104,1.583-8.398,1.583-12.821C170.447,179.422,154.31,159.173,132.285,152.915z"/>
<path fill="#483963" d="M65.353,203.453c0,4.423,0.553,8.717,1.583,12.821c4.069-1.161,8.064-2.829,11.895-5.04
	c20.811-12.016,30.278-36.116,24.686-58.319C81.49,159.173,65.353,179.422,65.353,203.453z"/>
<circle fill="#7759B5" cx="52.556" cy="90.274" r="52.547"/>
<path fill="#483963" d="M89.13,128c-16.432-15.945-42.037-19.796-62.848-7.781c-3.831,2.212-7.272,4.837-10.312,7.781
	c3.04,2.944,6.481,5.569,10.312,7.781C47.094,147.796,72.698,143.945,89.13,128z"/>
<path fill="#483963" d="M78.83,44.766c-3.831-2.211-7.826-3.879-11.895-5.04c-1.029,4.104-1.583,8.398-1.583,12.821
	c0,24.031,16.138,44.279,38.163,50.538C109.108,80.881,99.641,56.782,78.83,44.766z"/>
<circle fill="#7759B5" cx="183.244" cy="90.274" r="52.547"/>
<path fill="#483963" d="M146.669,128c16.432,15.945,42.037,19.796,62.848,7.781c3.831-2.212,7.272-4.837,10.312-7.781
	c-3.04-2.944-6.481-5.569-10.312-7.781C188.706,108.204,163.101,112.055,146.669,128z"/>
<path fill="#483963" d="M132.285,103.085c22.025-6.258,38.163-26.507,38.163-50.538c0-4.423-0.553-8.717-1.583-12.821
	c-4.069,1.161-8.064,2.828-11.895,5.04C136.158,56.782,126.691,80.882,132.285,103.085z"/>
</svg>
